<svg id="visual" viewBox="0 0 960 540" width="960" height="540" xmlns="http://www.w3.org/2000/svg" xmlns:xlink="http://www.w3.org/1999/xlink" version="1.1"><rect x="0" y="0" width="960" height="540" fill="#002233"></rect><path d="M0 421L22.8 413.3C45.7 405.7 91.3 390.3 137 384.3C182.7 378.3 228.3 381.7 274 375.8C319.7 370 365.3 355 411.2 364.2C457 373.3 503 406.7 548.8 411.2C594.7 415.7 640.3 391.3 686 391.2C731.7 391 777.3 415 823 414.5C868.7 414 914.3 389 937.2 376.5L960 364L960 541L937.2 541C914.3 541 868.7 541 823 541C777.3 541 731.7 541 686 541C640.3 541 594.7 541 548.8 541C503 541 457 541 411.2 541C365.3 541 319.7 541 274 541C228.3 541 182.7 541 137 541C91.3 541 45.7 541 22.8 541L0 541Z" fill="#0066FF" stroke-linecap="round" stroke-linejoin="miter"></path></svg>